<?xml version="1.0" encoding="utf-8"?>
<!-- Generator: Adobe Illustrator 22.0.2, SVG Export Plug-In . SVG Version: 6.00 Build 0)  -->
<svg version="1.1" id="Layer_1" xmlns="http://www.w3.org/2000/svg" xmlns:xlink="http://www.w3.org/1999/xlink" x="0px" y="0px"
	 viewBox="0 0 480 320" style="enable-background:new 0 0 480 320;" xml:space="preserve">
<style type="text/css">
	.st0{fill:#FF0000;}
	.st1{font-family:'SourceHanSerifSC-Regular-GBpc-EUC-H';}
	.st2{font-size:22px;}
	.st3{fill:none;stroke:#FF0000;stroke-miterlimit:10;}
	.st4{fill:none;stroke:#000000;stroke-miterlimit:10;}
</style>
<text transform="matrix(1 0 0 1 47.366 174.9407)"><tspan x="0" y="0" class="st0 st1 st2">Minecraft</tspan><tspan x="19.6" y="26.4" class="st0 st1 st2">服务器</tspan></text>
<text transform="matrix(1 0 0 1 72.0002 68.1411)" class="st0 st1 st2">消息转发控制中心</text>
<text transform="matrix(1 0 0 1 329.9719 278.1411)" class="st1 st2">QQ群成员</text>
<text transform="matrix(1 0 0 1 55.9998 278.1411)" class="st1 st2">游戏玩家</text>
<g>
	<g>
		<line class="st3" x1="156.5" y1="77.4" x2="103.5" y2="152.6"/>
		<g>
			<path class="st0" d="M160,72.5c-2.5,1.7-6,3.6-8.8,4.2l4.9,1.3l2.9,4.1C158.7,79.3,159.2,75.4,160,72.5z"/>
		</g>
		<g>
			<path class="st0" d="M100,157.5c0.8-2.9,1.3-6.8,1-9.7l2.9,4.1l4.9,1.3C106,153.9,102.5,155.8,100,157.5z"/>
		</g>
	</g>
</g>
<g>
	<g>
		<line class="st4" x1="100" y1="211" x2="100" y2="249"/>
		<g>
			<path d="M100,205c-1.1,2.8-2.9,6.4-4.8,8.5l4.8-1.7l4.8,1.7C102.9,211.4,101.1,207.8,100,205z"/>
		</g>
		<g>
			<path d="M100,255c-1.1-2.8-2.9-6.4-4.8-8.5l4.8,1.7l4.8-1.7C102.9,248.6,101.1,252.2,100,255z"/>
		</g>
	</g>
</g>
<g>
	<g>
		<line class="st4" x1="321.9" y1="78.2" x2="378.1" y2="249.3"/>
		<g>
			<path d="M320,72.5c-0.1,3-0.7,6.9-1.8,9.6l4-3.1l5.1,0.1C324.7,77.7,321.9,74.9,320,72.5z"/>
		</g>
		<g>
			<path d="M380,255c-1.9-2.4-4.7-5.2-7.2-6.6l5.1,0.1l4-3.1C380.7,248.1,380.1,252,380,255z"/>
		</g>
	</g>
</g>
<text transform="matrix(1 0 0 1 291.9724 68.1411)" class="st1 st2">QQ群</text>
<g>
	<g>
		<line class="st3" x1="164.1" y1="76.9" x2="235.9" y2="153.1"/>
		<g>
			<path class="st0" d="M160,72.5c1.2,2.8,2.3,6.6,2.4,9.5l2.3-4.5l4.6-2C166.4,75.2,162.7,73.8,160,72.5z"/>
		</g>
		<g>
			<path class="st0" d="M240,157.5c-2.7-1.3-6.4-2.7-9.3-3l4.6-2l2.3-4.5C237.7,150.9,238.8,154.7,240,157.5z"/>
		</g>
	</g>
</g>
<text transform="matrix(1 0 0 1 189.9724 178.1411)" class="st0 st1 st2">QQ机器人</text>
<g>
	<g>
		<line class="st4" x1="315.9" y1="76.9" x2="244.1" y2="153.1"/>
		<g>
			<path d="M320,72.5c-2.7,1.3-6.4,2.7-9.3,3l4.6,2l2.3,4.5C317.7,79.1,318.8,75.3,320,72.5z"/>
		</g>
		<g>
			<path d="M240,157.5c1.2-2.8,2.3-6.6,2.4-9.5l2.3,4.5l4.6,2C246.4,154.8,242.7,156.2,240,157.5z"/>
		</g>
	</g>
</g>
</svg>
