<?xml version="1.0" encoding="utf-8"?>
<!-- Generator: Adobe Illustrator 22.0.2, SVG Export Plug-In . SVG Version: 6.00 Build 0)  -->
<svg version="1.1" id="Layer_1" xmlns="http://www.w3.org/2000/svg" xmlns:xlink="http://www.w3.org/1999/xlink" x="0px" y="0px"
	 viewBox="0 0 480 320" style="enable-background:new 0 0 480 320;" xml:space="preserve">
<style type="text/css">
	.st0{font-family:'SourceHanSerifSC-Regular-GBpc-EUC-H';}
	.st1{font-size:22px;}
	.st2{fill:none;stroke:#000000;stroke-miterlimit:10;}
</style>
<text transform="matrix(1 0 0 1 69.9719 118.1411)" class="st0 st1">QQ机器人</text>
<text transform="matrix(1 0 0 1 31.6375 198.1414)" class="st0 st1">Minecraft 服务器</text>
<text transform="matrix(1 0 0 1 211.9719 38.1411)" class="st0 st1">QQ群</text>
<text transform="matrix(1 0 0 1 309.9724 278.1414)" class="st0 st1">QQ群成员</text>
<text transform="matrix(1 0 0 1 75.9998 278.1411)" class="st0 st1">游戏玩家</text>
<g>
	<g>
		<line class="st2" x1="234.4" y1="49.3" x2="125.6" y2="94.7"/>
		<g>
			<path d="M240,47c-3,0.1-7-0.2-9.7-1.1l3.4,3.7l0.2,5.1C235.2,52.1,237.8,49.1,240,47z"/>
		</g>
		<g>
			<path d="M120,97c2.2-2.1,4.8-5.1,6.1-7.7l0.2,5.1l3.4,3.7C127,97.2,123,96.9,120,97z"/>
		</g>
	</g>
</g>
<g>
	<g>
		<line class="st2" x1="120" y1="131" x2="120" y2="169"/>
		<g>
			<path d="M120,125c-1.1,2.8-2.9,6.4-4.8,8.5l4.8-1.7l4.8,1.7C122.9,131.4,121.1,127.8,120,125z"/>
		</g>
		<g>
			<path d="M120,175c-1.1-2.8-2.9-6.4-4.8-8.5l4.8,1.7l4.8-1.7C122.9,168.6,121.1,172.2,120,175z"/>
		</g>
	</g>
</g>
<g>
	<g>
		<line class="st2" x1="120" y1="211" x2="120" y2="249"/>
		<g>
			<path d="M120,205c-1.1,2.8-2.9,6.4-4.8,8.5l4.8-1.7l4.8,1.7C122.9,211.4,121.1,207.8,120,205z"/>
		</g>
		<g>
			<path d="M120,255c-1.1-2.8-2.9-6.4-4.8-8.5l4.8,1.7l4.8-1.7C122.9,248.6,121.1,252.2,120,255z"/>
		</g>
	</g>
</g>
<g>
	<g>
		<line class="st2" x1="243" y1="52.2" x2="357" y2="249.8"/>
		<g>
			<path d="M240,47c0.5,3,0.7,6.9,0.2,9.8l3.3-3.9l5-0.9C245.6,51.1,242.3,48.9,240,47z"/>
		</g>
		<g>
			<path d="M360,255c-2.3-1.9-5.6-4.1-8.4-5l5-0.9l3.3-3.9C359.3,248.1,359.5,252,360,255z"/>
		</g>
	</g>
</g>
</svg>
