<?xml version="1.0" encoding="utf-8"?>
<!-- Generator: Adobe Illustrator 23.0.3, SVG Export Plug-In . SVG Version: 6.00 Build 0)  -->
<svg version="1.1" id="Layer_1" xmlns="http://www.w3.org/2000/svg" xmlns:xlink="http://www.w3.org/1999/xlink" x="0px" y="0px"
		viewBox="0 0 480 320" style="enable-background:new 0 0 480 320;" xml:space="preserve">
	<style type="text/css">
		.st0{font-family:'SourceHanSerifSC-ExtraLight-GBpc-EUC-H';}
		.st1{font-size:22px;}
		.st2{font-family:'SourceHanSerifSC-Regular-GBpc-EUC-H';}
		.st3{font-size:12px;}
		.st4{fill:none;stroke:#000000;stroke-miterlimit:10;}
	</style>
	<text transform="matrix(1 0 0 1 190.303 54.1411)" class="st0 st1">QQ机器人</text>
	<text transform="matrix(1 0 0 1 31.2903 170.9998)"><tspan x="0" y="0" class="st2 st3">Minecraft</tspan><tspan x="4.71" y="14.4" class="st2 st3">服务器甲</tspan></text>
	<text transform="matrix(1 0 0 1 111.2727 180)" class="st2 st3">QQ群甲</text>
	<text transform="matrix(1 0 0 1 36.5002 287.9998)" class="st2 st3">游戏玩家</text>
	<text transform="matrix(1 0 0 1 105.7727 288.0002)" class="st2 st3">QQ群成员</text>
	<g>
		<g>
			<line class="st4" x1="245.85" y1="73.46" x2="342.15" y2="97.54"/>
			<g>
				<path d="M240,72c2.5,1.71,5.48,4.31,7.14,6.69l-0.52-5.03l2.82-4.2C246.86,70.78,243.01,71.67,240,72z"/>
			</g>
			<g>
				<path d="M348,99c-3.01,0.33-6.86,1.22-9.45,2.54l2.82-4.2l-0.52-5.03C342.52,94.69,345.5,97.29,348,99z"/>
			</g>
		</g>
	</g>
	<g>
		<g>
			<line class="st4" x1="234.15" y1="73.46" x2="137.85" y2="97.54"/>
			<g>
				<path d="M240,72c-3.01-0.33-6.86-1.22-9.45-2.54l2.82,4.2l-0.52,5.03C234.52,76.31,237.5,73.71,240,72z"/>
			</g>
			<g>
				<path d="M132,99c2.5-1.71,5.48-4.31,7.14-6.69l-0.52,5.03l2.82,4.2C138.86,100.22,135.01,99.33,132,99z"/>
			</g>
		</g>
	</g>
	<g>
		<g>
			<line class="st4" x1="61" y1="204.04" x2="61" y2="263.96"/>
			<g>
				<path d="M61,198c-1.05,2.84-2.85,6.36-4.76,8.55l4.76-1.72l4.75,1.72C63.85,204.36,62.05,200.84,61,198z"/>
			</g>
			<g>
				<path d="M61,270c-1.05-2.84-2.85-6.36-4.76-8.55l4.76,1.72l4.75-1.72C63.85,263.64,62.05,267.16,61,270z"/>
			</g>
		</g>
	</g>
	<g>
		<g>
			<line class="st4" x1="133" y1="204.04" x2="133" y2="263.96"/>
			<g>
				<path d="M133,198c-1.05,2.84-2.85,6.36-4.76,8.55l4.76-1.72l4.75,1.72C135.85,204.36,134.05,200.84,133,198z"/>
			</g>
			<g>
				<path d="M133,270c-1.05-2.84-2.85-6.36-4.76-8.55l4.76,1.72l4.75-1.72C135.85,263.64,134.05,267.16,133,270z"/>
			</g>
		</g>
	</g>
	<text transform="matrix(1 0 0 1 110.2659 116.7859)" class="st2 st3">服务组1</text>
	<text transform="matrix(1 0 0 1 327.2659 116.9998)" class="st2 st3">服务组2</text>
	<g>
		<g>
			<line class="st4" x1="132" y1="132.04" x2="132" y2="155.96"/>
			<g>
				<path d="M132,126c-1.05,2.84-2.85,6.36-4.76,8.55l4.76-1.72l4.75,1.72C134.85,132.36,133.05,128.84,132,126z"/>
			</g>
			<g>
				<path d="M132,162c-1.05-2.84-2.85-6.36-4.76-8.55l4.76,1.72l4.75-1.72C134.85,155.64,133.05,159.16,132,162z"/>
			</g>
		</g>
	</g>
	<g>
		<g>
			<line class="st4" x1="126.6" y1="128.7" x2="65.4" y2="159.3"/>
			<g>
				<path d="M132,126c-3.01,0.33-6.97,0.3-9.77-0.43l3.67,3.48l0.59,5.02C127.58,131.4,129.93,128.21,132,126z"/>
			</g>
			<g>
				<path d="M60,162c2.07-2.21,4.42-5.4,5.52-8.08l0.59,5.02l3.67,3.48C66.97,161.7,63.01,161.67,60,162z"/>
			</g>
		</g>
	</g>
	<text transform="matrix(1 0 0 1 201.7903 170.9998)"><tspan x="0" y="0" class="st2 st3">Minecraft</tspan><tspan x="4.71" y="14.4" class="st2 st3">服务器乙</tspan></text>
	<text transform="matrix(1 0 0 1 207.0002 287.9998)" class="st2 st3">游戏玩家</text>
	<g>
		<g>
			<line class="st4" x1="231" y1="204.04" x2="231" y2="263.96"/>
			<g>
				<path d="M231,198c-1.05,2.84-2.85,6.36-4.76,8.55l4.76-1.72l4.75,1.72C233.85,204.36,232.05,200.84,231,198z"/>
			</g>
			<g>
				<path d="M231,270c-1.05-2.84-2.85-6.36-4.76-8.55l4.76,1.72l4.75-1.72C233.85,263.64,232.05,267.16,231,270z"/>
			</g>
		</g>
	</g>
	<text transform="matrix(1 0 0 1 273.7903 170.9998)"><tspan x="0" y="0" class="st2 st3">Minecraft</tspan><tspan x="4.71" y="14.4" class="st2 st3">服务器丙</tspan></text>
	<text transform="matrix(1 0 0 1 344.7727 180)" class="st2 st3">QQ群乙</text>
	<text transform="matrix(1 0 0 1 279.0002 287.9998)" class="st2 st3">游戏玩家</text>
	<text transform="matrix(1 0 0 1 338.7727 288.0002)" class="st2 st3">QQ群成员</text>
	<g>
		<g>
			<line class="st4" x1="303" y1="204.04" x2="303" y2="263.96"/>
			<g>
				<path d="M303,198c-1.05,2.84-2.85,6.36-4.76,8.55l4.76-1.72l4.75,1.72C305.85,204.36,304.05,200.84,303,198z"/>
			</g>
			<g>
				<path d="M303,270c-1.05-2.84-2.85-6.36-4.76-8.55l4.76,1.72l4.75-1.72C305.85,263.64,304.05,267.16,303,270z"/>
			</g>
		</g>
	</g>
	<g>
		<g>
			<line class="st4" x1="366" y1="204.04" x2="366" y2="263.96"/>
			<g>
				<path d="M366,198c-1.05,2.84-2.85,6.36-4.76,8.55l4.76-1.72l4.75,1.72C368.85,204.36,367.05,200.84,366,198z"/>
			</g>
			<g>
				<path d="M366,270c-1.05-2.84-2.85-6.36-4.76-8.55l4.76,1.72l4.75-1.72C368.85,263.64,367.05,267.16,366,270z"/>
			</g>
		</g>
	</g>
	<text transform="matrix(1 0 0 1 407.7727 180)" class="st2 st3">QQ群丙</text>
	<text transform="matrix(1 0 0 1 401.7727 288.0002)" class="st2 st3">QQ群成员</text>
	<g>
		<g>
			<line class="st4" x1="429" y1="204.04" x2="429" y2="263.96"/>
			<g>
				<path d="M429,198c-1.05,2.84-2.85,6.36-4.76,8.55l4.76-1.72l4.75,1.72C431.85,204.36,430.05,200.84,429,198z"/>
			</g>
			<g>
				<path d="M429,270c-1.05-2.84-2.85-6.36-4.76-8.55l4.76,1.72l4.75-1.72C431.85,263.64,430.05,267.16,429,270z"/>
			</g>
		</g>
	</g>
	<g>
		<g>
			<line class="st4" x1="342.23" y1="127.77" x2="236.77" y2="160.23"/>
			<g>
				<path d="M348,126c-3.02-0.17-6.92-0.85-9.57-2.03l3.04,4.04l-0.25,5.05C342.76,130.6,345.6,127.84,348,126z"/>
			</g>
			<g>
				<path d="M231,162c2.4-1.84,5.24-4.6,6.77-7.06l-0.25,5.05l3.04,4.04C237.92,162.85,234.02,162.17,231,162z"/>
			</g>
		</g>
	</g>
	<g>
		<g>
			<line class="st4" x1="343.29" y1="129.77" x2="307.71" y2="158.23"/>
			<g>
				<path d="M348,126c-2.88,0.95-6.75,1.75-9.65,1.63l4.31,2.64l1.63,4.79C344.81,132.2,346.44,128.6,348,126z"/>
			</g>
			<g>
				<path d="M303,162c1.56-2.6,3.19-6.2,3.7-9.05l1.63,4.79l4.31,2.64C309.75,160.25,305.88,161.05,303,162z"/>
			</g>
		</g>
	</g>
	<g>
		<g>
			<line class="st4" x1="350.7" y1="131.4" x2="363.3" y2="156.6"/>
			<g>
				<path d="M348,126c0.33,3.01,0.3,6.97-0.43,9.77l3.48-3.67l5.02-0.59C353.4,130.42,350.21,128.07,348,126z"/>
			</g>
			<g>
				<path d="M366,162c-2.21-2.07-5.4-4.42-8.08-5.52l5.02-0.59l3.48-3.67C365.7,155.03,365.67,158.99,366,162z"/>
			</g>
		</g>
	</g>
	<g>
		<g>
			<line class="st4" x1="353.52" y1="128.45" x2="423.48" y2="159.55"/>
			<g>
				<path d="M348,126c2.17,2.12,4.66,5.19,5.88,7.82l0.36-5.04l3.5-3.65C354.97,125.98,351.02,126.19,348,126z"/>
			</g>
			<g>
				<path d="M429,162c-3.02-0.19-6.97,0.02-9.74,0.87l3.5-3.65l0.36-5.04C424.34,156.81,426.83,159.88,429,162z"/>
			</g>
		</g>
	</g>
</svg>
