<?xml version="1.0" encoding="utf-8"?>
<!-- Generator: Adobe Illustrator 22.0.2, SVG Export Plug-In . SVG Version: 6.00 Build 0)  -->
<svg version="1.1" id="Layer_1" xmlns="http://www.w3.org/2000/svg" xmlns:xlink="http://www.w3.org/1999/xlink" x="0px" y="0px"
	 viewBox="0 0 480 320" style="enable-background:new 0 0 480 320;" xml:space="preserve">
<style type="text/css">
	.st0{font-family:'SourceHanSerifSC-Regular-GBpc-EUC-H';}
	.st1{font-size:22px;}
	.st2{font-size:12px;}
	.st3{fill:none;stroke:#000000;stroke-miterlimit:10;}
	.st4{font-family:'AdobeSongStd-Light-GBpc-EUC-H';}
</style>
<text transform="matrix(1 0 0 1 152.0002 48.1411)" class="st0 st1">消息转发控制中心</text>
<text transform="matrix(1 0 0 1 67.2903 131.7859)"><tspan x="0" y="0" class="st0 st2">Minecraft</tspan><tspan x="4.7" y="14.4" class="st0 st2">服务器甲</tspan></text>
<text transform="matrix(1 0 0 1 159.2898 131.7859)"><tspan x="0" y="0" class="st0 st2">Minecraft</tspan><tspan x="4.7" y="14.4" class="st0 st2">服务器乙</tspan></text>
<text transform="matrix(1 0 0 1 254.7727 138.9863)" class="st0 st2">QQ机器人甲</text>
<text transform="matrix(1 0 0 1 350.7727 138.9866)" class="st0 st2">QQ机器人乙</text>
<text transform="matrix(1 0 0 1 72.0002 258.9861)" class="st0 st2">游戏玩家</text>
<text transform="matrix(1 0 0 1 163.9998 258.9861)" class="st0 st2">游戏玩家</text>
<text transform="matrix(1 0 0 1 260.7727 258.9858)" class="st0 st2">QQ群成员</text>
<text transform="matrix(1 0 0 1 356.7727 258.9861)" class="st0 st2">QQ群成员</text>
<text transform="matrix(1 0 0 1 260.7727 198.9856)" class="st0 st2">QQ群成员</text>
<text transform="matrix(1 0 0 1 356.7727 198.9858)" class="st0 st2">QQ群成员</text>
<g>
	<g>
		<line class="st3" x1="234.4" y1="57.3" x2="101.6" y2="112.7"/>
		<g>
			<path d="M240,55c-3,0.1-7-0.2-9.7-1.1l3.4,3.7l0.2,5.1C235.2,60.1,237.8,57.1,240,55z"/>
		</g>
		<g>
			<path d="M96,115c2.2-2.1,4.8-5.1,6.1-7.7l0.2,5.1l3.4,3.7C103,115.2,99,114.9,96,115z"/>
		</g>
	</g>
</g>
<g>
	<g>
		<line class="st3" x1="245.6" y1="57.3" x2="378.4" y2="112.7"/>
		<g>
			<path d="M240,55c2.2,2.1,4.8,5.1,6.1,7.7l0.2-5.1l3.4-3.7C247,54.8,243,55.1,240,55z"/>
		</g>
		<g>
			<path d="M384,115c-3-0.1-7,0.2-9.7,1.1l3.4-3.7l0.2-5.1C379.2,109.9,381.8,112.9,384,115z"/>
		</g>
	</g>
</g>
<g>
	<g>
		<line class="st3" x1="243.8" y1="59.7" x2="284.2" y2="110.3"/>
		<g>
			<path d="M240,55c1,2.9,1.7,6.8,1.6,9.6l2.6-4.3l4.8-1.6C246.2,58.2,242.6,56.6,240,55z"/>
		</g>
		<g>
			<path d="M288,115c-2.6-1.6-6.2-3.2-9.1-3.7l4.8-1.6l2.6-4.3C286.3,108.3,287,112.1,288,115z"/>
		</g>
	</g>
</g>
<g>
	<g>
		<line class="st3" x1="232" y1="59.6" x2="188" y2="110.4"/>
		<g>
			<path d="M236,55c-2.7,1.5-6.3,2.9-9.2,3.3l4.7,1.8l2.5,4.4C234,61.7,234.9,57.8,236,55z"/>
		</g>
		<g>
			<path d="M184,115c1.1-2.8,2-6.7,2-9.6l2.5,4.4l4.7,1.8C190.3,112.1,186.7,113.5,184,115z"/>
		</g>
	</g>
</g>
<g>
	<g>
		<line class="st3" x1="96" y1="161" x2="96" y2="239"/>
		<g>
			<path d="M96,155c-1.1,2.8-2.9,6.4-4.8,8.5l4.8-1.7l4.8,1.7C98.9,161.4,97.1,157.8,96,155z"/>
		</g>
		<g>
			<path d="M96,245c-1.1-2.8-2.9-6.4-4.8-8.5l4.8,1.7l4.8-1.7C98.9,238.6,97.1,242.2,96,245z"/>
		</g>
	</g>
</g>
<g>
	<g>
		<line class="st3" x1="188" y1="161" x2="188" y2="239"/>
		<g>
			<path d="M188,155c-1.1,2.8-2.9,6.4-4.8,8.5l4.8-1.7l4.8,1.7C190.9,161.4,189.1,157.8,188,155z"/>
		</g>
		<g>
			<path d="M188,245c-1.1-2.8-2.9-6.4-4.8-8.5l4.8,1.7l4.8-1.7C190.9,238.6,189.1,242.2,188,245z"/>
		</g>
	</g>
</g>
<g>
	<g>
		<line class="st3" x1="288" y1="151" x2="288" y2="179"/>
		<g>
			<path d="M288,145c-1.1,2.8-2.9,6.4-4.8,8.5l4.8-1.7l4.8,1.7C290.9,151.4,289.1,147.8,288,145z"/>
		</g>
		<g>
			<path d="M288,185c-1.1-2.8-2.9-6.4-4.8-8.5l4.8,1.7l4.8-1.7C290.9,178.6,289.1,182.2,288,185z"/>
		</g>
	</g>
</g>
<g>
	<g>
		<line class="st3" x1="288" y1="211" x2="288" y2="239"/>
		<g>
			<path d="M288,205c-1.1,2.8-2.9,6.4-4.8,8.5l4.8-1.7l4.8,1.7C290.9,211.4,289.1,207.8,288,205z"/>
		</g>
		<g>
			<path d="M288,245c-1.1-2.8-2.9-6.4-4.8-8.5l4.8,1.7l4.8-1.7C290.9,238.6,289.1,242.2,288,245z"/>
		</g>
	</g>
</g>
<g>
	<g>
		<line class="st3" x1="384" y1="151" x2="384" y2="179"/>
		<g>
			<path d="M384,145c-1.1,2.8-2.9,6.4-4.8,8.5l4.8-1.7l4.8,1.7C386.9,151.4,385.1,147.8,384,145z"/>
		</g>
		<g>
			<path d="M384,185c-1.1-2.8-2.9-6.4-4.8-8.5l4.8,1.7l4.8-1.7C386.9,178.6,385.1,182.2,384,185z"/>
		</g>
	</g>
</g>
<g>
	<g>
		<line class="st3" x1="384" y1="211" x2="384" y2="239"/>
		<g>
			<path d="M384,205c-1.1,2.8-2.9,6.4-4.8,8.5l4.8-1.7l4.8,1.7C386.9,211.4,385.1,207.8,384,205z"/>
		</g>
		<g>
			<path d="M384,245c-1.1-2.8-2.9-6.4-4.8-8.5l4.8,1.7l4.8-1.7C386.9,238.6,385.1,242.2,384,245z"/>
		</g>
	</g>
</g>
<text transform="matrix(1 0 0 1 12 303.7563)" class="st4 st2">或咕咕，或收费版</text>
</svg>
